<svg xmlns="http://www.w3.org/2000/svg" xmlns:xlink="http://www.w3.org/1999/xlink" width="1080" zoomAndPan="magnify" viewBox="0 0 810 809.999993" height="1080" preserveAspectRatio="xMidYMid meet" version="1.0"><defs><clipPath id="c7aeaf8d93"><path d="M 609 330 L 779.644531 330 L 779.644531 494 L 609 494 Z M 609 330 " clip-rule="nonzero"/></clipPath></defs><path fill="#ffffff" d="M 286.394531 510.496094 L 301.464844 510.496094 L 301.464844 672.472656 L 286.394531 672.472656 C 268.589844 672.472656 261.03125 668.765625 256.40625 661.976562 C 251.722656 655.148438 249.617188 642.375 249.617188 623.601562 L 249.617188 559.359375 C 249.617188 540.628906 251.722656 527.855469 256.40625 521.019531 C 261.03125 514.195312 268.589844 510.496094 286.394531 510.496094 Z M 416.726562 362.308594 C 420.828125 362.414062 425.464844 366.457031 430.101562 373.726562 C 437.171875 384.652344 440.488281 401.042969 432.929688 422.007812 C 427.46875 437.226562 428.539062 450.046875 428.539062 460.058594 C 428.539062 463.277344 428.144531 467.753906 429.316406 472.699219 L 417.609375 472.699219 C 406.191406 472.699219 407.070312 490.585938 418.488281 490.40625 L 542.488281 490.40625 C 548.53125 490.40625 554.484375 494.011719 558 500.894531 C 561.511719 507.808594 561.511719 516.742188 558 523.671875 C 554.484375 530.554688 548.519531 534.160156 542.488281 534.160156 C 531.109375 534.589844 531.109375 551.425781 542.488281 551.867188 C 548.53125 551.867188 554.484375 555.527344 558 562.441406 C 561.511719 569.324219 561.511719 578.199219 558 585.128906 C 554.484375 592.003906 548.519531 595.664062 542.488281 595.664062 C 530.667969 595.664062 530.667969 613.355469 542.488281 613.355469 C 548.53125 613.355469 554.484375 616.980469 558 623.898438 C 561.511719 630.773438 561.511719 639.753906 558 646.636719 C 554.484375 653.5 548.519531 657.105469 542.488281 657.105469 C 533.5625 657.105469 530.230469 668.878906 537.84375 673.503906 C 540.183594 674.964844 542.339844 677.316406 543.894531 680.433594 C 546.824219 686.324219 546.824219 694.03125 543.894531 699.941406 C 540.960938 705.792969 536.234375 708.722656 531.597656 708.609375 L 412.335938 708.714844 C 381.664062 708.714844 370.246094 701.261719 359.027344 692.671875 C 349.042969 685.023438 338.113281 675.265625 319.175781 673.074219 L 319.175781 503.601562 C 319.175781 499.371094 321.804688 493.703125 327.855469 486.539062 C 333.90625 479.367188 342.832031 471.078125 352.542969 461.566406 C 371.914062 442.546875 396.789062 418.601562 403.953125 383.042969 C 406.921875 368.507812 411.417969 362.113281 416.726562 362.308594 Z M 393.613281 352.617188 C 390.296875 359.640625 389.613281 368.359375 386.933594 378.464844 C 378.878906 408.550781 358.96875 430.457031 340.105469 448.988281 C 330.683594 458.269531 321.5625 466.601562 314.390625 475.132812 C 309.707031 480.648438 305.867188 486.445312 303.5625 492.796875 L 286.394531 492.796875 C 265.660156 492.796875 250.300781 498.601562 241.816406 510.980469 C 233.273438 523.417969 231.90625 539.507812 231.90625 559.367188 L 231.90625 623.609375 C 231.90625 643.460938 233.273438 659.605469 241.816406 671.996094 C 250.289062 684.375 265.660156 690.191406 286.394531 690.191406 L 311.8125 690.191406 C 330.3125 690.378906 335.902344 697.25 348.253906 706.71875 C 360.582031 716.128906 378.449219 726.46875 412.445312 726.421875 L 531.410156 726.320312 C 543.519531 726.515625 554.289062 718.875 559.757812 707.785156 C 565.210938 696.765625 564.628906 681.996094 559.167969 670.917969 C 585.691406 653.257812 582.085938 618.085938 564.527344 604.523438 C 583.164062 590.046875 582.761719 557.5625 564.46875 542.980469 C 579.800781 532.003906 581.796875 507.863281 573.796875 492.878906 C 567.355469 480.882812 555.683594 472.691406 542.480469 472.691406 L 454.285156 472.691406 C 447.511719 472.691406 447.847656 471.761719 447.222656 470.394531 C 446.539062 469.027344 446.246094 464.890625 446.246094 460.058594 C 446.246094 449.082031 445.46875 439.613281 449.601562 428.019531 C 466.1875 381.976562 442.390625 346.90625 414.640625 340.03125 C 402.585938 337.054688 396.929688 345.632812 393.613281 352.617188 Z M 393.613281 352.617188 " fill-opacity="1" fill-rule="nonzero"/><path fill="#ffffff" d="M 594.441406 177.070312 C 594.769531 177.070312 595.113281 177.660156 595.648438 178.738281 L 616.335938 221.363281 L 663.550781 228.339844 C 666.480469 228.78125 664.101562 230.09375 663.511719 230.625 L 630 260.863281 L 637.644531 309.101562 C 638.082031 311.9375 636.585938 312.519531 633.945312 311.09375 L 594.429688 290.082031 L 554.777344 311.199219 C 551.996094 312.648438 550.675781 312.320312 551.207031 309.101562 L 558.871094 260.863281 L 525.453125 230.71875 C 522.914062 228.472656 525.070312 228.367188 525.359375 228.332031 L 572.515625 221.355469 L 593.203125 178.726562 C 593.738281 177.613281 594.140625 177.070312 594.441406 177.070312 Z M 594.441406 160.15625 C 587.453125 160.15625 582.386719 165.28125 579.453125 171.367188 L 562.042969 207.167969 L 522.335938 212.972656 C 518.820312 213.460938 515.863281 214.246094 512.96875 215.8125 C 510.09375 217.328125 507.171875 220.242188 506.289062 224.050781 C 505.355469 227.84375 506.488281 231.320312 507.996094 234.007812 C 509.511719 236.722656 511.359375 239.175781 513.90625 241.449219 C 523.269531 249.992188 532.730469 258.390625 542.09375 266.820312 L 535.707031 307.300781 C 535.035156 311.140625 534.773438 314.464844 535.117188 317.640625 C 535.410156 320.863281 536.382812 324.363281 539.21875 327.050781 C 542.058594 329.785156 546.300781 330.554688 549.523438 330.171875 C 552.746094 329.777344 555.527344 328.605469 558.449219 327.050781 L 594.449219 307.882812 L 630.488281 327.050781 C 633.417969 328.617188 636.191406 329.785156 639.414062 330.171875 C 642.597656 330.554688 646.785156 329.777344 649.621094 327.050781 C 652.441406 324.363281 653.460938 320.851562 653.808594 317.640625 C 654.15625 314.464844 653.808594 311.140625 653.21875 307.300781 L 646.71875 266.820312 L 674.929688 241.449219 C 677.503906 239.167969 679.414062 236.722656 680.875 234.007812 C 682.394531 231.320312 683.507812 227.84375 682.636719 224.050781 C 681.753906 220.242188 678.777344 217.320312 675.957031 215.8125 C 673.066406 214.246094 669.992188 213.46875 666.480469 212.972656 L 626.828125 207.167969 L 609.414062 171.367188 C 606.476562 165.269531 601.351562 160.15625 594.441406 160.15625 Z M 594.441406 160.15625 " fill-opacity="1" fill-rule="nonzero"/><g clip-path="url(#c7aeaf8d93)"><path fill="#ffffff" d="M 695.449219 352.945312 L 711.746094 386.359375 C 713.007812 388.988281 715.546875 390.84375 718.421875 391.226562 L 754.675781 396.601562 C 757.253906 396.988281 756.671875 398.503906 755.351562 399.675781 L 729.652344 422.796875 C 727.402344 424.789062 726.328125 427.769531 726.8125 430.738281 L 733.164062 470.546875 C 733.453125 472.4375 733.199219 473.382812 730.570312 472.007812 L 698.191406 454.785156 C 695.597656 453.417969 692.488281 453.417969 689.886719 454.785156 L 656.957031 472.351562 C 655.25 473.234375 654.578125 472.691406 654.90625 470.59375 L 661.253906 430.738281 C 661.75 427.769531 660.664062 424.789062 658.417969 422.796875 L 633.355469 400.253906 C 630.320312 397.519531 631.78125 396.59375 633.503906 396.59375 L 669.683594 391.21875 C 672.578125 390.789062 675.058594 388.988281 676.324219 386.347656 C 676.324219 386.347656 687.09375 364.144531 692.515625 353.085938 C 693.601562 350.855469 694.679688 351.296875 695.449219 352.945312 Z M 694.035156 330.078125 C 686.625 330.078125 681.390625 335.535156 678.46875 341.539062 L 662.519531 374.472656 L 625.992188 379.773438 C 622.574219 380.308594 619.503906 381.046875 616.535156 382.613281 C 613.601562 384.222656 610.390625 387.339844 609.398438 391.488281 C 608.421875 395.589844 609.6875 399.289062 611.203125 402.082031 C 612.722656 404.804688 614.660156 407.203125 617.152344 409.433594 L 643.019531 432.757812 L 637.164062 469.917969 C 636.527344 473.625 636.230469 476.847656 636.574219 480.117188 C 636.902344 483.320312 637.839844 486.980469 640.910156 489.921875 C 643.984375 492.84375 648.574219 493.761719 651.945312 493.375 C 655.261719 492.992188 658.03125 491.765625 660.90625 490.257812 L 694.035156 472.652344 L 727.199219 490.257812 C 730.035156 491.773438 732.816406 492.992188 736.125 493.375 C 739.484375 493.761719 744.027344 492.832031 747.097656 489.921875 C 750.171875 486.980469 751.203125 483.320312 751.546875 480.117188 C 751.894531 476.839844 751.640625 473.625 751.015625 469.917969 L 745.046875 432.757812 L 770.617188 409.730469 C 773.285156 407.539062 775.148438 404.320312 776.855469 402.082031 C 778.371094 399.300781 779.636719 395.589844 778.660156 391.488281 C 777.679688 387.339844 774.457031 384.222656 771.523438 382.613281 C 768.566406 381.046875 765.523438 380.308594 762.121094 379.773438 L 725.632812 374.472656 L 709.628906 341.539062 C 706.714844 335.535156 701.441406 330.078125 694.035156 330.078125 Z M 694.035156 330.078125 " fill-opacity="1" fill-rule="nonzero"/></g><path fill="#ffffff" d="M 117.664062 352.945312 L 133.949219 386.359375 C 135.214844 388.988281 137.714844 390.84375 140.636719 391.226562 L 176.875 396.601562 C 179.457031 396.988281 178.886719 398.503906 177.558594 399.675781 L 151.847656 422.796875 C 149.609375 424.789062 148.535156 427.769531 148.972656 430.738281 L 155.371094 470.546875 C 155.660156 472.4375 155.371094 473.382812 152.792969 472.007812 L 120.398438 454.785156 C 117.8125 453.417969 114.695312 453.417969 112.101562 454.785156 L 79.171875 472.351562 C 77.457031 473.234375 76.726562 472.691406 77.074219 470.59375 L 83.460938 430.738281 C 83.902344 427.769531 82.832031 424.789062 80.625 422.796875 L 55.570312 400.265625 C 52.535156 397.53125 54.015625 396.601562 55.664062 396.601562 L 91.917969 391.226562 C 94.792969 390.796875 97.265625 389 98.539062 386.359375 C 98.539062 386.359375 109.320312 364.15625 114.734375 353.09375 C 115.808594 350.855469 116.832031 351.296875 117.664062 352.945312 Z M 116.25 330.078125 C 108.839844 330.078125 103.617188 335.535156 100.695312 341.539062 L 84.695312 374.472656 L 48.207031 379.773438 C 44.789062 380.308594 41.71875 381.046875 38.738281 382.613281 C 35.769531 384.222656 32.597656 387.339844 31.621094 391.488281 C 30.640625 395.589844 31.855469 399.289062 33.410156 402.082031 C 34.929688 404.804688 36.867188 407.203125 39.375 409.433594 L 65.226562 432.757812 L 59.316406 469.917969 C 58.699219 473.625 58.4375 476.847656 58.773438 480.117188 C 59.128906 483.320312 60.046875 486.980469 63.117188 489.921875 C 66.191406 492.84375 70.769531 493.761719 74.152344 493.375 C 77.46875 492.992188 80.238281 491.765625 83.132812 490.257812 L 116.242188 472.652344 L 149.414062 490.257812 C 152.25 491.773438 155.023438 492.992188 158.339844 493.375 C 161.710938 493.761719 166.242188 492.832031 169.316406 489.921875 C 172.386719 486.980469 173.417969 483.320312 173.753906 480.117188 C 174.101562 476.839844 173.800781 473.625 173.210938 469.917969 L 167.265625 432.757812 L 192.824219 409.730469 C 195.511719 407.539062 197.308594 404.320312 199.070312 402.082031 C 200.578125 399.300781 201.785156 395.589844 200.820312 391.488281 C 199.894531 387.339844 196.671875 384.222656 193.75 382.613281 C 190.78125 381.046875 187.738281 380.308594 184.339844 379.773438 L 147.800781 374.472656 L 131.851562 341.539062 C 128.941406 335.535156 123.675781 330.078125 116.25 330.078125 Z M 116.25 330.078125 " fill-opacity="1" fill-rule="nonzero"/><path fill="#ffffff" d="M 211.367188 177.070312 C 211.703125 177.070312 212.050781 177.660156 212.59375 178.738281 L 233.226562 221.363281 L 280.4375 228.339844 C 283.417969 228.78125 280.972656 230.09375 280.382812 230.625 L 246.882812 260.863281 L 254.535156 309.101562 C 254.972656 311.9375 253.511719 312.519531 250.871094 311.09375 L 211.3125 290.082031 L 171.703125 311.199219 C 168.929688 312.648438 167.601562 312.320312 168.144531 309.101562 L 175.796875 260.863281 L 142.398438 230.71875 C 139.859375 228.472656 141.957031 228.367188 142.238281 228.332031 L 189.40625 221.355469 L 210.132812 178.726562 C 210.683594 177.613281 211.03125 177.070312 211.367188 177.070312 Z M 211.320312 160.15625 C 204.398438 160.15625 199.324219 165.28125 196.390625 171.367188 L 178.972656 207.167969 L 139.28125 212.972656 C 135.722656 213.460938 132.742188 214.246094 129.859375 215.8125 C 127.03125 217.328125 124.109375 220.242188 123.179688 224.050781 C 122.289062 227.84375 123.414062 231.320312 124.941406 234.007812 C 126.441406 236.722656 128.257812 239.175781 130.839844 241.449219 C 140.160156 249.992188 149.621094 258.390625 158.984375 266.820312 L 152.597656 307.300781 C 151.960938 311.140625 151.660156 314.464844 152.007812 317.640625 C 152.355469 320.863281 153.273438 324.363281 156.148438 327.050781 C 158.976562 329.785156 163.226562 330.554688 166.441406 330.171875 C 169.660156 329.777344 172.398438 328.605469 175.308594 327.050781 L 211.320312 307.882812 L 247.367188 327.050781 C 250.300781 328.617188 253.074219 329.785156 256.292969 330.171875 C 259.523438 330.554688 263.664062 329.777344 266.539062 327.050781 C 269.378906 324.363281 270.398438 320.851562 270.734375 317.640625 C 271.015625 314.464844 270.734375 311.140625 270.109375 307.300781 L 263.664062 266.820312 L 291.816406 241.449219 C 294.394531 239.167969 296.304688 236.722656 297.8125 234.007812 C 299.320312 231.320312 300.445312 227.84375 299.574219 224.050781 C 298.625 220.242188 295.714844 217.320312 292.839844 215.8125 C 290 214.246094 286.929688 213.46875 283.371094 212.972656 L 243.761719 207.167969 L 226.34375 171.367188 C 223.363281 165.269531 218.296875 160.15625 211.320312 160.15625 Z M 211.320312 160.15625 " fill-opacity="1" fill-rule="nonzero"/><path fill="#ffffff" d="M 405.125 76.007812 L 427.65625 122.492188 L 479.214844 130.152344 C 482.4375 130.585938 479.804688 132.0625 479.160156 132.636719 L 442.585938 165.65625 L 450.921875 218.292969 C 451.417969 221.410156 449.808594 222 446.929688 220.484375 L 403.765625 197.558594 L 360.542969 220.566406 C 357.527344 222.179688 356.058594 221.839844 356.648438 218.285156 L 365.039062 165.644531 L 328.550781 132.777344 C 325.769531 130.285156 328.0625 130.191406 328.398438 130.144531 L 379.855469 122.484375 L 402.492188 76 C 403.652344 73.621094 404 73.675781 405.125 76.007812 Z M 403.757812 56.699219 C 396.246094 56.699219 390.832031 62.222656 387.601562 68.796875 L 368.820312 107.480469 L 325.945312 113.726562 C 322.085938 114.316406 318.867188 115.132812 315.792969 116.789062 C 312.675781 118.457031 309.5 121.574219 308.535156 125.675781 C 307.609375 129.816406 308.824219 133.582031 310.445312 136.503906 C 312.058594 139.386719 314.050781 142.007812 316.824219 144.554688 C 326.882812 153.769531 337.121094 162.796875 347.273438 171.957031 L 340.351562 215.660156 C 339.675781 219.800781 339.328125 223.367188 339.714844 226.824219 C 340.058594 230.296875 341.082031 234.054688 344.164062 236.976562 C 347.242188 239.898438 351.8125 240.738281 355.289062 240.335938 C 358.746094 239.898438 361.730469 238.6875 364.886719 236.976562 L 403.765625 216.296875 L 442.734375 236.976562 C 445.910156 238.6875 448.871094 239.898438 452.34375 240.335938 C 455.800781 240.738281 460.34375 239.898438 463.414062 236.976562 C 466.488281 234.054688 467.5625 230.296875 467.902344 226.824219 C 468.304688 223.367188 467.957031 219.800781 467.28125 215.660156 L 460.277344 171.949219 L 490.714844 144.546875 C 493.496094 142.046875 495.546875 139.378906 497.160156 136.492188 C 498.769531 133.570312 499.996094 129.808594 499.058594 125.667969 C 498.085938 121.566406 494.929688 118.449219 491.800781 116.78125 C 488.730469 115.125 485.414062 114.300781 481.613281 113.71875 L 438.785156 107.472656 L 420.003906 68.796875 C 416.832031 62.222656 411.265625 56.699219 403.757812 56.699219 Z M 403.757812 56.699219 " fill-opacity="1" fill-rule="nonzero"/></svg>